<svg xmlns="http://www.w3.org/2000/svg" xmlns:xlink="http://www.w3.org/1999/xlink" width="500" zoomAndPan="magnify" viewBox="0 0 375 374.999991" height="500" preserveAspectRatio="xMidYMid meet" version="1.0"><defs><g/><clipPath id="f34131e809"><path d="M 113 59.800781 L 262 59.800781 L 262 221 L 113 221 Z M 113 59.800781 " clip-rule="nonzero"/></clipPath><clipPath id="b891f6c516"><path d="M 91.335938 195 L 187 195 L 187 242 L 91.335938 242 Z M 91.335938 195 " clip-rule="nonzero"/></clipPath><clipPath id="bb73d3e73d"><path d="M 165 210 L 283.335938 210 L 283.335938 253.300781 L 165 253.300781 Z M 165 210 " clip-rule="nonzero"/></clipPath></defs><path fill="#66c9ff" d="M 249.589844 241.761719 L 253.851562 241.761719 L 253.851562 237.503906 L 249.589844 237.503906 L 249.589844 241.761719 " fill-opacity="1" fill-rule="nonzero"/><path fill="#66c9ff" d="M 243.71875 241.761719 L 247.976562 241.761719 L 247.976562 237.503906 L 243.71875 237.503906 L 243.71875 241.761719 " fill-opacity="1" fill-rule="nonzero"/><path fill="#66c9ff" d="M 249.589844 247.632812 L 253.851562 247.632812 L 253.851562 243.375 L 249.589844 243.375 L 249.589844 247.632812 " fill-opacity="1" fill-rule="nonzero"/><path fill="#66c9ff" d="M 243.71875 247.632812 L 247.976562 247.632812 L 247.976562 243.375 L 243.71875 243.375 L 243.71875 247.632812 " fill-opacity="1" fill-rule="nonzero"/><path fill="#66c9ff" d="M 261.421875 223.953125 L 256.410156 221.808594 L 261.421875 226.957031 Z M 261.421875 223.953125 " fill-opacity="1" fill-rule="nonzero"/><g clip-path="url(#f34131e809)"><path fill="#66c9ff" d="M 146.847656 116.304688 L 146.847656 157.6875 L 145.578125 157.6875 L 145.578125 115.761719 Z M 155.472656 119.992188 L 155.472656 178.597656 L 152.542969 178.597656 L 152.542969 118.742188 Z M 163.328125 89.789062 L 167.824219 85.761719 L 167.824219 122.554688 L 165.546875 121.578125 L 163.933594 120.890625 L 163.328125 120.628906 Z M 116.707031 135.511719 L 120.4375 132.171875 L 120.4375 208.070312 L 122.332031 206.128906 L 122.332031 130.480469 L 127.070312 126.238281 L 127.070312 183.242188 L 128.964844 183.242188 L 128.964844 124.546875 L 134.324219 119.753906 L 134.324219 200.558594 L 136.214844 200.558594 L 136.214844 118.066406 L 139.949219 114.722656 L 139.949219 200.558594 L 155.207031 200.558594 L 155.207031 200.136719 L 154.421875 200.136719 L 154.421875 192.75 L 163.933594 192.75 L 163.933594 123.613281 L 165.546875 124.304688 L 165.546875 192.75 L 168.269531 192.75 L 168.269531 200.136719 L 167.542969 200.136719 L 167.542969 200.558594 L 171.621094 200.558594 L 171.621094 124.179688 L 170.105469 123.527344 L 170.105469 83.722656 L 175.816406 78.613281 L 175.816406 147.320312 L 178.101562 147.320312 L 178.101562 76.574219 L 184.558594 70.792969 L 184.558594 205.445312 L 186.839844 207.789062 L 186.839844 68.757812 L 191.347656 64.730469 L 191.347656 211.722656 L 200.996094 211.722656 L 201.78125 212.527344 L 203.804688 214.605469 L 210.652344 214.605469 L 210.652344 208.21875 L 214.035156 208.21875 L 214.035156 162.242188 L 217.253906 159.359375 L 217.253906 208.21875 L 218.886719 208.21875 L 218.886719 157.898438 L 222.980469 154.242188 L 222.980469 203.421875 L 224.617188 203.421875 L 224.617188 152.785156 L 229.238281 148.644531 L 229.238281 214.605469 L 230.867188 214.605469 L 230.867188 147.1875 L 234.09375 144.304688 L 234.09375 214.605469 L 239.542969 214.605469 L 236.351562 213.246094 L 236.351562 209.90625 L 247.351562 214.605469 L 249.390625 214.605469 L 250.175781 215.410156 L 250.839844 216.097656 L 261.421875 220.613281 L 261.421875 213.167969 L 236.351562 202.460938 L 236.351562 199.125 L 261.421875 209.832031 L 261.421875 202.390625 L 236.351562 191.683594 L 236.351562 188.347656 L 261.421875 199.050781 L 261.421875 191.605469 L 236.351562 180.898438 L 236.351562 177.5625 L 261.421875 188.269531 L 261.421875 180.828125 L 236.351562 170.121094 L 236.351562 166.785156 L 261.421875 177.492188 L 261.421875 170.042969 L 236.351562 159.335938 L 236.351562 156 L 261.421875 166.707031 L 261.421875 159.265625 L 236.351562 148.558594 L 236.351562 145.222656 L 261.421875 155.929688 L 261.421875 152.464844 L 236.761719 141.917969 L 234.09375 140.773438 L 230.867188 143.644531 L 229.515625 144.84375 L 229.515625 134.890625 L 195.074219 120.179688 L 195.074219 116.84375 L 229.515625 131.554688 L 229.515625 127.449219 L 195.074219 112.734375 L 195.074219 109.402344 L 229.515625 124.113281 L 229.515625 120 L 195.074219 105.289062 L 195.074219 101.953125 L 229.515625 116.667969 L 229.515625 112.558594 L 195.074219 97.847656 L 195.074219 94.511719 L 229.515625 109.222656 L 229.515625 105.109375 L 195.074219 90.398438 L 195.074219 87.0625 L 229.515625 101.777344 L 229.515625 97.667969 L 195.074219 82.953125 L 195.074219 79.621094 L 229.515625 94.332031 L 229.515625 90.21875 L 195.074219 75.511719 L 195.074219 72.175781 L 229.515625 86.882812 L 229.515625 82.777344 L 195.074219 68.0625 L 195.074219 64.730469 L 229.515625 79.441406 L 229.515625 76.128906 L 195.074219 61.394531 L 191.347656 59.800781 L 186.839844 63.804688 L 184.558594 65.832031 L 178.101562 71.574219 L 175.816406 73.605469 L 170.105469 78.679688 L 167.824219 80.710938 L 159.53125 88.082031 L 159.53125 119.003906 L 155.472656 117.269531 L 152.542969 116.019531 L 152.542969 116.015625 L 146.847656 113.578125 L 146.847656 113.582031 L 145.578125 113.035156 L 143.046875 111.953125 L 139.949219 110.632812 L 138.144531 112.234375 L 136.214844 113.953125 L 134.324219 115.632812 L 128.964844 120.402344 L 127.070312 122.082031 L 122.332031 126.296875 L 120.4375 127.980469 L 113.5625 134.097656 L 113.5625 215.128906 L 116.707031 211.902344 L 116.707031 135.511719 " fill-opacity="1" fill-rule="nonzero"/></g><path fill="#66c9ff" d="M 123.816406 228.253906 L 128.335938 228.253906 L 128.335938 223.734375 L 123.816406 223.734375 L 123.816406 228.253906 " fill-opacity="1" fill-rule="nonzero"/><path fill="#66c9ff" d="M 130.050781 228.253906 L 134.570312 228.253906 L 134.570312 223.734375 L 130.050781 223.734375 L 130.050781 228.253906 " fill-opacity="1" fill-rule="nonzero"/><path fill="#66c9ff" d="M 123.816406 234.488281 L 128.335938 234.488281 L 128.335938 229.964844 L 123.816406 229.964844 L 123.816406 234.488281 " fill-opacity="1" fill-rule="nonzero"/><path fill="#66c9ff" d="M 130.050781 234.488281 L 134.570312 234.488281 L 134.570312 229.964844 L 130.050781 229.964844 L 130.050781 234.488281 " fill-opacity="1" fill-rule="nonzero"/><g clip-path="url(#b891f6c516)"><path fill="#66c9ff" d="M 180.757812 241.757812 L 171.621094 232.386719 L 170.441406 231.175781 L 161.539062 231.175781 L 163.933594 228.714844 L 165.546875 227.0625 L 165.941406 226.65625 L 171.621094 220.832031 L 173.042969 219.371094 L 179.707031 212.527344 L 180.492188 211.722656 L 186.949219 211.722656 L 186.839844 211.609375 L 184.558594 209.265625 L 178.675781 203.222656 L 164.882812 203.222656 L 164.882812 197.476562 L 165.609375 197.476562 L 165.609375 195.414062 L 157.085938 195.414062 L 157.085938 197.476562 L 157.867188 197.476562 L 157.867188 213.105469 L 154.289062 209.433594 L 154.289062 203.222656 L 128.882812 203.222656 L 122.332031 209.941406 L 120.4375 211.886719 L 116.707031 215.714844 L 113.5625 218.945312 L 91.335938 241.757812 L 99.160156 241.757812 L 113.5625 226.988281 L 116.707031 223.757812 L 120.4375 219.929688 L 122.332031 217.988281 L 128.882812 211.265625 L 134.324219 216.851562 L 136.214844 218.789062 L 139.949219 222.625 L 158.597656 241.757812 L 180.757812 241.757812 " fill-opacity="1" fill-rule="nonzero"/></g><path fill="#66c9ff" d="M 199.339844 225.398438 L 197.128906 225.398438 L 197.128906 227.609375 L 199.339844 227.609375 L 199.339844 225.398438 " fill-opacity="1" fill-rule="nonzero"/><path fill="#66c9ff" d="M 197.128906 230.65625 L 199.339844 230.65625 L 199.339844 228.445312 L 197.128906 228.445312 L 197.128906 230.65625 " fill-opacity="1" fill-rule="nonzero"/><path fill="#66c9ff" d="M 202.386719 225.398438 L 200.179688 225.398438 L 200.179688 227.609375 L 202.386719 227.609375 L 202.386719 225.398438 " fill-opacity="1" fill-rule="nonzero"/><path fill="#66c9ff" d="M 200.179688 230.65625 L 202.386719 230.65625 L 202.386719 228.445312 L 200.179688 228.445312 L 200.179688 230.65625 " fill-opacity="1" fill-rule="nonzero"/><g clip-path="url(#bb73d3e73d)"><path fill="#66c9ff" d="M 261.421875 230.765625 L 250.046875 219.09375 L 248.269531 217.269531 L 224.332031 217.269531 L 224.332031 223.113281 L 220.953125 226.582031 L 220.953125 212.945312 L 221.835938 212.945312 L 221.835938 210.882812 L 213.316406 210.882812 L 213.316406 212.945312 L 214.035156 212.945312 L 214.035156 217.269531 L 205.730469 217.269531 L 214.035156 225.789062 L 215.203125 226.992188 L 217.253906 229.097656 L 218.820312 230.703125 L 212.957031 230.703125 L 212.957031 244.5625 L 174.757812 244.5625 L 171.621094 247.78125 L 165.976562 253.582031 L 220.269531 253.582031 L 229.238281 244.375 L 230.867188 242.703125 L 234.09375 239.390625 L 237.914062 235.472656 L 240.210938 233.117188 L 245.332031 227.855469 L 247.628906 225.5 L 248.269531 224.84375 L 249.824219 226.441406 L 255.390625 232.15625 L 261.421875 238.34375 L 276.265625 253.582031 L 283.644531 253.582031 L 261.421875 230.765625 " fill-opacity="1" fill-rule="nonzero"/></g><path fill="#66c9ff" d="M 210.765625 241.210938 L 210.765625 228.515625 L 213.640625 228.515625 L 202.679688 217.269531 L 200.085938 214.605469 L 199.875 214.386719 L 181.613281 214.386719 L 174.949219 221.226562 L 171.621094 224.640625 L 167.847656 228.515625 L 171.566406 228.515625 L 171.621094 228.570312 L 171.621094 228.515625 L 188.976562 228.515625 L 191.347656 226.085938 L 196.148438 221.160156 L 199.875 217.332031 L 200.582031 218.058594 L 207.746094 225.410156 L 207.746094 241.210938 L 210.765625 241.210938 " fill-opacity="1" fill-rule="nonzero"/><g fill="#66c9ff" fill-opacity="1"><g transform="translate(88.502856, 287.848603)"><g><path d="M 10.828125 0.640625 C 8.691406 0.640625 6.882812 0.21875 5.40625 -0.625 C 3.9375 -1.46875 2.816406 -2.707031 2.046875 -4.34375 C 1.285156 -5.988281 0.90625 -8.003906 0.90625 -10.390625 C 0.90625 -12.773438 1.28125 -14.773438 2.03125 -16.390625 C 2.789062 -18.015625 3.898438 -19.238281 5.359375 -20.0625 C 6.816406 -20.894531 8.59375 -21.3125 10.6875 -21.3125 C 12.019531 -21.3125 13.304688 -21.140625 14.546875 -20.796875 C 15.796875 -20.453125 17.035156 -19.929688 18.265625 -19.234375 L 17.4375 -17.71875 C 16.332031 -18.320312 15.242188 -18.769531 14.171875 -19.0625 C 13.109375 -19.351562 12.007812 -19.5 10.875 -19.5 C 8.289062 -19.5 6.332031 -18.726562 5 -17.1875 C 3.675781 -15.644531 3.015625 -13.382812 3.015625 -10.40625 C 3.015625 -8.425781 3.320312 -6.75 3.9375 -5.375 C 4.550781 -4 5.453125 -2.953125 6.640625 -2.234375 C 7.828125 -1.515625 9.28125 -1.15625 11 -1.15625 C 13.34375 -1.15625 15.53125 -1.835938 17.5625 -3.203125 L 18.4375 -1.65625 C 17.164062 -0.863281 15.929688 -0.285156 14.734375 0.078125 C 13.535156 0.453125 12.234375 0.640625 10.828125 0.640625 Z M 11.078125 -2.5625 C 8.972656 -2.5625 7.367188 -3.222656 6.265625 -4.546875 C 5.171875 -5.867188 4.625 -7.820312 4.625 -10.40625 C 4.625 -12.96875 5.171875 -14.890625 6.265625 -16.171875 C 7.367188 -17.460938 8.960938 -18.109375 11.046875 -18.109375 C 13.015625 -18.109375 14.894531 -17.539062 16.6875 -16.40625 L 15.8125 -14.828125 C 15.019531 -15.335938 14.253906 -15.707031 13.515625 -15.9375 C 12.785156 -16.175781 12.035156 -16.296875 11.265625 -16.296875 C 10.242188 -16.296875 9.398438 -16.101562 8.734375 -15.71875 C 8.078125 -15.332031 7.578125 -14.703125 7.234375 -13.828125 C 6.898438 -12.960938 6.734375 -11.820312 6.734375 -10.40625 C 6.734375 -8.269531 7.113281 -6.726562 7.875 -5.78125 C 8.632812 -4.832031 9.742188 -4.359375 11.203125 -4.359375 C 12.878906 -4.359375 14.457031 -4.898438 15.9375 -5.984375 L 16.8125 -4.5 C 15.832031 -3.820312 14.878906 -3.328125 13.953125 -3.015625 C 13.035156 -2.710938 12.078125 -2.5625 11.078125 -2.5625 Z M 11.078125 -2.5625 "/></g></g></g><g fill="#66c9ff" fill-opacity="1"><g transform="translate(110.173302, 287.848603)"><g><path d="M 3.609375 -20.65625 L 3.609375 0 L 1.546875 0 L 1.546875 -20.65625 Z M 7.234375 -20.65625 L 7.234375 0 L 5.171875 0 L 5.171875 -20.65625 Z M 7.234375 -20.65625 "/></g></g></g><g fill="#66c9ff" fill-opacity="1"><g transform="translate(121.899943, 287.848603)"><g><path d="M 18.859375 -20.65625 L 18.859375 -18.859375 L 0.390625 -18.859375 L 0.390625 -20.65625 Z M 0.390625 -15.59375 L 0.390625 -17.40625 L 8.859375 -17.40625 L 8.859375 0 L 6.796875 0 L 6.796875 -15.59375 Z M 18.859375 -17.40625 L 18.859375 -15.59375 L 12.46875 -15.59375 L 12.46875 0 L 10.40625 0 L 10.40625 -17.40625 Z M 18.859375 -17.40625 "/></g></g></g><g fill="#66c9ff" fill-opacity="1"><g transform="translate(144.086955, 287.848603)"><g><path d="M 0.125 -20.65625 L 2.265625 -20.65625 L 9.21875 -6.96875 L 9.21875 0 L 7.15625 0 L 7.15625 -7.109375 Z M 6.046875 -20.65625 L 10 -12.5 L 13.953125 -20.65625 L 16.09375 -20.65625 L 10 -8.59375 L 3.90625 -20.65625 Z M 17.71875 -20.65625 L 19.859375 -20.65625 L 12.84375 -7.109375 L 12.84375 0 L 10.765625 0 L 10.765625 -6.96875 Z M 17.71875 -20.65625 "/></g></g></g><g fill="#66c9ff" fill-opacity="1"><g transform="translate(167.022967, 287.848603)"><g/></g></g><g fill="#66c9ff" fill-opacity="1"><g transform="translate(177.070782, 287.848603)"><g><path d="M 9.8125 -2.71875 C 8.625 -2.71875 7.316406 -2.914062 5.890625 -3.3125 C 4.460938 -3.707031 3.007812 -4.265625 1.53125 -4.984375 L 2.25 -6.734375 C 3.675781 -6.015625 5.015625 -5.460938 6.265625 -5.078125 C 7.523438 -4.703125 8.757812 -4.515625 9.96875 -4.515625 C 11.976562 -4.515625 12.984375 -5.082031 12.984375 -6.21875 C 12.984375 -6.632812 12.8125 -6.96875 12.46875 -7.21875 C 12.125 -7.46875 11.691406 -7.65625 11.171875 -7.78125 C 10.660156 -7.914062 9.914062 -8.078125 8.9375 -8.265625 C 7.332031 -8.554688 6.007812 -8.875 4.96875 -9.21875 C 3.925781 -9.5625 3.023438 -10.148438 2.265625 -10.984375 C 1.515625 -11.828125 1.140625 -12.992188 1.140625 -14.484375 C 1.140625 -15.878906 1.488281 -17.078125 2.1875 -18.078125 C 2.882812 -19.078125 3.878906 -19.84375 5.171875 -20.375 C 6.472656 -20.90625 8.019531 -21.171875 9.8125 -21.171875 C 11.226562 -21.171875 12.707031 -21.007812 14.25 -20.6875 C 15.800781 -20.375 17.15625 -19.960938 18.3125 -19.453125 L 17.671875 -17.71875 C 16.390625 -18.238281 15.066406 -18.644531 13.703125 -18.9375 C 12.335938 -19.226562 11.039062 -19.375 9.8125 -19.375 C 8.539062 -19.375 7.410156 -19.203125 6.421875 -18.859375 C 5.429688 -18.515625 4.65625 -17.984375 4.09375 -17.265625 C 3.53125 -16.546875 3.25 -15.644531 3.25 -14.5625 C 3.25 -13.457031 3.539062 -12.59375 4.125 -11.96875 C 4.71875 -11.351562 5.4375 -10.914062 6.28125 -10.65625 C 7.125 -10.40625 8.242188 -10.164062 9.640625 -9.9375 C 10.859375 -9.738281 11.828125 -9.535156 12.546875 -9.328125 C 13.273438 -9.117188 13.882812 -8.78125 14.375 -8.3125 C 14.863281 -7.851562 15.109375 -7.21875 15.109375 -6.40625 C 15.109375 -5.1875 14.65625 -4.265625 13.75 -3.640625 C 12.84375 -3.023438 11.53125 -2.71875 9.8125 -2.71875 Z M 9.71875 0.515625 C 8.09375 0.515625 6.457031 0.300781 4.8125 -0.125 C 3.164062 -0.5625 1.648438 -1.175781 0.265625 -1.96875 L 1 -3.71875 C 2.550781 -2.945312 4.082031 -2.351562 5.59375 -1.9375 C 7.113281 -1.519531 8.53125 -1.3125 9.84375 -1.3125 C 12.03125 -1.3125 13.71875 -1.742188 14.90625 -2.609375 C 16.101562 -3.484375 16.703125 -4.785156 16.703125 -6.515625 C 16.703125 -7.660156 16.398438 -8.546875 15.796875 -9.171875 C 15.203125 -9.804688 14.476562 -10.253906 13.625 -10.515625 C 12.769531 -10.773438 11.640625 -11.015625 10.234375 -11.234375 C 9.003906 -11.421875 8.035156 -11.613281 7.328125 -11.8125 C 6.628906 -12.007812 6.039062 -12.328125 5.5625 -12.765625 C 5.09375 -13.210938 4.859375 -13.832031 4.859375 -14.625 C 4.859375 -15.757812 5.320312 -16.597656 6.25 -17.140625 C 7.175781 -17.691406 8.40625 -17.96875 9.9375 -17.96875 C 11.09375 -17.96875 12.316406 -17.820312 13.609375 -17.53125 C 14.898438 -17.238281 16.082031 -16.84375 17.15625 -16.34375 L 16.53125 -14.671875 C 15.582031 -15.148438 14.539062 -15.519531 13.40625 -15.78125 C 12.28125 -16.039062 11.132812 -16.171875 9.96875 -16.171875 C 8.96875 -16.171875 8.21875 -16.054688 7.71875 -15.828125 C 7.21875 -15.609375 6.96875 -15.25 6.96875 -14.75 C 6.96875 -14.382812 7.125 -14.085938 7.4375 -13.859375 C 7.757812 -13.640625 8.175781 -13.46875 8.6875 -13.34375 C 9.195312 -13.226562 9.910156 -13.082031 10.828125 -12.90625 C 12.421875 -12.632812 13.753906 -12.320312 14.828125 -11.96875 C 15.910156 -11.613281 16.847656 -11 17.640625 -10.125 C 18.429688 -9.257812 18.828125 -8.0625 18.828125 -6.53125 C 18.828125 -5.019531 18.445312 -3.738281 17.6875 -2.6875 C 16.9375 -1.632812 15.875 -0.835938 14.5 -0.296875 C 13.132812 0.242188 11.539062 0.515625 9.71875 0.515625 Z M 9.71875 0.515625 "/></g></g></g><g fill="#66c9ff" fill-opacity="1"><g transform="translate(199.619383, 287.848603)"><g><path d="M 10.828125 0.640625 C 8.691406 0.640625 6.882812 0.21875 5.40625 -0.625 C 3.9375 -1.46875 2.816406 -2.707031 2.046875 -4.34375 C 1.285156 -5.988281 0.90625 -8.003906 0.90625 -10.390625 C 0.90625 -12.773438 1.28125 -14.773438 2.03125 -16.390625 C 2.789062 -18.015625 3.898438 -19.238281 5.359375 -20.0625 C 6.816406 -20.894531 8.59375 -21.3125 10.6875 -21.3125 C 12.019531 -21.3125 13.304688 -21.140625 14.546875 -20.796875 C 15.796875 -20.453125 17.035156 -19.929688 18.265625 -19.234375 L 17.4375 -17.71875 C 16.332031 -18.320312 15.242188 -18.769531 14.171875 -19.0625 C 13.109375 -19.351562 12.007812 -19.5 10.875 -19.5 C 8.289062 -19.5 6.332031 -18.726562 5 -17.1875 C 3.675781 -15.644531 3.015625 -13.382812 3.015625 -10.40625 C 3.015625 -8.425781 3.320312 -6.75 3.9375 -5.375 C 4.550781 -4 5.453125 -2.953125 6.640625 -2.234375 C 7.828125 -1.515625 9.28125 -1.15625 11 -1.15625 C 13.34375 -1.15625 15.53125 -1.835938 17.5625 -3.203125 L 18.4375 -1.65625 C 17.164062 -0.863281 15.929688 -0.285156 14.734375 0.078125 C 13.535156 0.453125 12.234375 0.640625 10.828125 0.640625 Z M 11.078125 -2.5625 C 8.972656 -2.5625 7.367188 -3.222656 6.265625 -4.546875 C 5.171875 -5.867188 4.625 -7.820312 4.625 -10.40625 C 4.625 -12.96875 5.171875 -14.890625 6.265625 -16.171875 C 7.367188 -17.460938 8.960938 -18.109375 11.046875 -18.109375 C 13.015625 -18.109375 14.894531 -17.539062 16.6875 -16.40625 L 15.8125 -14.828125 C 15.019531 -15.335938 14.253906 -15.707031 13.515625 -15.9375 C 12.785156 -16.175781 12.035156 -16.296875 11.265625 -16.296875 C 10.242188 -16.296875 9.398438 -16.101562 8.734375 -15.71875 C 8.078125 -15.332031 7.578125 -14.703125 7.234375 -13.828125 C 6.898438 -12.960938 6.734375 -11.820312 6.734375 -10.40625 C 6.734375 -8.269531 7.113281 -6.726562 7.875 -5.78125 C 8.632812 -4.832031 9.742188 -4.359375 11.203125 -4.359375 C 12.878906 -4.359375 14.457031 -4.898438 15.9375 -5.984375 L 16.8125 -4.5 C 15.832031 -3.820312 14.878906 -3.328125 13.953125 -3.015625 C 13.035156 -2.710938 12.078125 -2.5625 11.078125 -2.5625 Z M 11.078125 -2.5625 "/></g></g></g><g fill="#66c9ff" fill-opacity="1"><g transform="translate(221.289834, 287.848603)"><g><path d="M 8.96875 -20.65625 L 2.09375 0 L 0.125 0 L 7.109375 -20.65625 Z M 13.0625 -20.65625 L 20.0625 0 L 18.109375 0 L 11.203125 -20.65625 Z M 14.328125 -6.328125 L 5.859375 -6.328125 L 10.09375 -19.65625 Z M 10.09375 -14.15625 L 8.265625 -8.140625 L 11.9375 -8.140625 Z M 14.796875 -4.875 L 16.5 0 L 14.515625 0 L 13.515625 -3.078125 L 6.6875 -3.078125 L 5.6875 0 L 3.6875 0 L 5.390625 -4.875 Z M 14.796875 -4.875 "/></g></g></g><g fill="#66c9ff" fill-opacity="1"><g transform="translate(244.432475, 287.848603)"><g><path d="M 12.015625 -20.65625 C 14.421875 -20.65625 16.238281 -20.101562 17.46875 -19 C 18.695312 -17.90625 19.3125 -16.289062 19.3125 -14.15625 C 19.3125 -9.382812 16.765625 -7 11.671875 -7 L 7.234375 -7 L 7.234375 0 L 5.171875 0 L 5.171875 -8.8125 L 11.234375 -8.8125 C 12.660156 -8.8125 13.804688 -8.988281 14.671875 -9.34375 C 15.546875 -9.707031 16.1875 -10.269531 16.59375 -11.03125 C 17 -11.789062 17.203125 -12.789062 17.203125 -14.03125 C 17.203125 -15.695312 16.703125 -16.914062 15.703125 -17.6875 C 14.703125 -18.46875 13.144531 -18.859375 11.03125 -18.859375 L 3.609375 -18.859375 L 3.609375 0 L 1.546875 0 L 1.546875 -20.65625 Z M 5.171875 -17.40625 L 11.359375 -17.40625 C 12.722656 -17.40625 13.769531 -17.109375 14.5 -16.515625 C 15.226562 -15.921875 15.59375 -15.046875 15.59375 -13.890625 C 15.59375 -12.691406 15.253906 -11.785156 14.578125 -11.171875 C 13.910156 -10.554688 12.875 -10.25 11.46875 -10.25 L 5.171875 -10.25 Z M 11.46875 -12.0625 C 12.8125 -12.0625 13.484375 -12.664062 13.484375 -13.875 C 13.484375 -14.4375 13.3125 -14.863281 12.96875 -15.15625 C 12.632812 -15.445312 12.132812 -15.59375 11.46875 -15.59375 L 7.234375 -15.59375 L 7.234375 -12.0625 Z M 11.46875 -12.0625 "/></g></g></g><g fill="#66c9ff" fill-opacity="1"><g transform="translate(267.471811, 287.848603)"><g><path d="M 17.828125 -20.65625 L 17.828125 -18.859375 L 3.609375 -18.859375 L 3.609375 -1.8125 L 18.078125 -1.8125 L 18.078125 0 L 1.546875 0 L 1.546875 -20.65625 Z M 17.828125 -17.40625 L 17.828125 -15.59375 L 7.234375 -15.59375 L 7.234375 -12.9375 L 17.5625 -12.9375 L 17.5625 -11.125 L 5.171875 -11.125 L 5.171875 -17.40625 Z M 17.5625 -9.6875 L 17.5625 -7.875 L 7.234375 -7.875 L 7.234375 -5.0625 L 18.078125 -5.0625 L 18.078125 -3.25 L 5.171875 -3.25 L 5.171875 -9.6875 Z M 17.5625 -9.6875 "/></g></g></g></svg>